<svg width="68" height="27" fill="none" xmlns="http://www.w3.org/2000/svg"><path fill-rule="evenodd" clip-rule="evenodd" d="M20.1 4.21c1.55 2.69 1.77 13.23.28 17.58l1.35 2.75C17.35 26.63 3.2 26.42 0 24.27l1.9-3.02C0 16.39.2 6.77 1.9 4.2L.27 1.2C3.09-.46 19.14-.41 22 1.46l-1.9 2.75zm-3.92 18.42l1.07-1.98-1.6-.87-2.95 1.63 3.48 1.22zm-9.92 0l4.33-.1-4.56-3.61-1.05.94 1.28 2.77zm9.1-16.94l-2.94 1.5-1-4.07-3.04 5.32-.97-2.22c-3.32 2.28-3.3 9.18 1.06 10.1l1-.35c-1.21-1-1.6-3.14-.35-4.86l1.8 2.5 1.29-1.82c.9.7 1.5 1.73 1.17 2.8l2.94-1.04.88-4.47-2.28.32.45-3.71zM16.59 16l-8.43 2.3 2.08 2.11 7.1-2.68-.75-1.73z" fill="#000"/><path d="M34.27 2.6l-.42 7.94-3.07.28-1.65-4.25-.25 4.34h-2.64l.21-8.31 2.93-.14 2.03 4.22.1-3.99 2.76-.1zm7.76 7.9l-2.9.37-.36-1.32h-1.33l-.3 1.32-2.98-.3 2.33-7.8 3.26-.16 2.28 7.89zm-3.47-2.75l-.44-2.04-.44 2.04h.88zm6.65-5l-.4 7.98-2.48.13-.23-7.95 3.11-.16zm7.67.04l-2.14 7.92-2.9.16-2.64-7.65 2.77-.26 1.13 4.45 1.09-4.8 2.7.18zm6.42 3.48c0 .34-.02.68-.07 1.02-.67.04-1.33.1-2 .2l-1.97.29c.1.28.26.5.47.67.22.17.48.25.78.25.16 0 .33-.03.51-.08a4.43 4.43 0 0 0 1.08-.5l.44-.28-.28 2.66a3.29 3.29 0 0 1-1.63.6 3.37 3.37 0 0 1-2.5-.56c-.27-.19-.5-.41-.69-.67-.2-.26-.36-.54-.49-.84a4.87 4.87 0 0 1-.39-2 6.05 6.05 0 0 1 .4-2.14c.14-.34.3-.65.5-.93.22-.3.46-.54.73-.76a3.21 3.21 0 0 1 2.07-.68 2.92 2.92 0 0 1 1.72.54c.23.17.42.37.59.6a4.28 4.28 0 0 1 .65 1.66c.05.31.08.63.08.95zm-2.34-.3c0-.12-.02-.23-.04-.34a1.02 1.02 0 0 0-.12-.32.64.64 0 0 0-.2-.23.53.53 0 0 0-.32-.1.7.7 0 0 0-.42.14c-.12.08-.22.18-.3.31-.1.13-.16.27-.22.41-.05.15-.1.29-.12.41l1.74-.16v-.13zM32.3 19.87c0 .54-.1 1-.28 1.4-.19.4-.44.74-.76 1-.32.27-.7.47-1.14.6-.42.14-.89.2-1.38.2-.2 0-.4-.02-.64-.07a8.34 8.34 0 0 1-1.94-.69l.26-2.41a4.92 4.92 0 0 0 2.57.6c.1 0 .2-.03.3-.05.09-.03.17-.08.24-.14.06-.06.1-.14.1-.25a.27.27 0 0 0-.07-.19.48.48 0 0 0-.18-.13 2.35 2.35 0 0 0-.78-.13h-.2a2.14 2.14 0 0 1-2.09-1.4c-.1-.29-.15-.6-.15-.94a2.7 2.7 0 0 1 1.02-2.17c.31-.25.67-.45 1.07-.59.4-.14.82-.2 1.25-.2a7.73 7.73 0 0 1 1.79.22c.19.06.37.13.54.21l-.22 2.38a6.74 6.74 0 0 0-1.69-.32 4.39 4.39 0 0 0-.71.07c-.1.02-.17.04-.25.08a.44.44 0 0 0-.17.13.28.28 0 0 0-.05.2c0 .08.03.15.09.2.06.05.14.1.23.13l.32.05.35.03h.55c.32.02.6.09.85.2a1.92 1.92 0 0 1 1.03 1.13c.1.26.14.54.14.85zm7.33 2.89l-2.93.14-.02-2.48h-1.35L35.25 23h-2.63l.22-8.24 2.8.13-.18 4.2h1.3l.01-4.4 2.67.07.19 8zm7.8-4.26a4.29 4.29 0 0 1-.48 1.96 3.78 3.78 0 0 1-1.3 1.41 3.66 3.66 0 0 1-4.6-.55 3.9 3.9 0 0 1-.93-1.66 3.85 3.85 0 0 1-.01-2 4.12 4.12 0 0 1 .91-1.72 3.72 3.72 0 0 1 1.62-1.04 4.34 4.34 0 0 1 2.55.12 3.3 3.3 0 0 1 1.96 1.93c.19.47.28.98.28 1.55zm-2.6.15a1.56 1.56 0 0 0-.3-.9 1.04 1.04 0 0 0-.82-.42 1.14 1.14 0 0 0-1.1.78c-.05.15-.08.31-.08.49 0 .16.02.32.07.49.05.16.12.31.21.44.1.14.2.24.35.33a1.11 1.11 0 0 0 1.35-.28 1.53 1.53 0 0 0 .32-.93zm9.88-1.3c0 .3-.03.57-.09.82a2.43 2.43 0 0 1-.68 1.26c-.18.17-.4.34-.65.5l1.4 2.49-2.65.51-.9-2.5-.72.03-.11 2.44h-2.52a647.46 647.46 0 0 0 .12-5.32 4355.94 4355.94 0 0 1 .07-2.68 7.65 7.65 0 0 1 2.42-.48l.85-.02c.44 0 .87.06 1.29.19.42.12.78.3 1.1.55a2.74 2.74 0 0 1 1.07 2.2zm-2.63.18c0-.16-.02-.32-.07-.45a.92.92 0 0 0-.53-.59 1.1 1.1 0 0 0-.45-.09l-.23.02c-.08 0-.15.02-.22.04l-.1 2.18h.15c.16 0 .33-.02.5-.06.18-.05.34-.11.48-.2.14-.1.25-.2.34-.35.09-.14.13-.3.13-.5zm9.24-2.8l-.06 2.48-1.74.07-.22 5.44-2.47.13-.22-5.44-1.75.1.07-2.77 6.39-.01zM67.66 20c0 .54-.1 1-.28 1.39-.18.39-.44.7-.76.96-.32.25-.7.44-1.13.56-.43.11-.9.17-1.4.17-.18 0-.4-.02-.63-.07a8.34 8.34 0 0 1-1.94-.69l.26-2.3c.33.2.7.36 1.1.46a4.92 4.92 0 0 0 1.46.15l.3-.06c.1-.03.18-.07.25-.13s.1-.14.1-.25a.27.27 0 0 0-.07-.19.48.48 0 0 0-.18-.13 2.35 2.35 0 0 0-.78-.13h-.2c-.33 0-.63-.05-.91-.16a2.1 2.1 0 0 1-.7-.44c-.2-.2-.36-.43-.47-.7-.1-.28-.16-.59-.16-.92a2.7 2.7 0 0 1 1.02-2.17c.31-.26.67-.46 1.07-.6.4-.13.82-.2 1.25-.2a7.73 7.73 0 0 1 1.79.23c.19.05.37.12.54.2l-.22 2.38a6.73 6.73 0 0 0-1.69-.31 4.37 4.37 0 0 0-.71.06c-.1.02-.17.05-.24.08a.44.44 0 0 0-.17.13.28.28 0 0 0-.06.2c0 .08.03.15.1.2.05.04.13.08.23.1.1.02.2.03.31.03a10.05 10.05 0 0 0 .9-.03c.32.02.6.09.85.2a1.92 1.92 0 0 1 1.03 1.12c.1.26.14.55.14.86z" fill="#000"/></svg>