<svg width="22" height="26" viewBox="0 0 22 26" fill="none" xmlns="http://www.w3.org/2000/svg">
<path fill-rule="evenodd" clip-rule="evenodd" d="M20.1057 4.21329C21.6535 6.89516 21.8678 17.4409 20.3759 21.7944L21.7327 24.5419C17.3539 26.6278 3.20117 26.4222 0 24.2677L1.89721 21.2491C0.0117471 16.389 0.208517 6.77299 1.89721 4.21329L0.267254 1.18874C3.08664 -0.462104 19.1424 -0.414427 22 1.46288L20.1057 4.21329ZM16.1821 22.6318L17.2511 20.6472L15.6417 19.7801L12.7048 21.413L16.1821 22.6318ZM6.26432 22.6318L10.5932 22.5364L6.02937 18.9159L4.98091 19.8575L6.26432 22.6318ZM15.3686 5.68534L12.42 7.19612L11.4126 3.11968L8.37885 8.43575L7.40969 6.21575C4.08811 8.49832 4.10279 15.3997 8.47283 16.3175L9.4743 15.9658C8.25551 14.9795 7.8649 12.8251 9.12188 11.1117L10.9163 13.6118L12.2056 11.7851C13.1013 12.4913 13.7063 13.5224 13.3803 14.5862L16.3172 13.5462L17.1982 9.07642L14.9222 9.39526L15.3686 5.68534ZM16.5815 16.0076L8.15272 18.308L10.2291 20.4237L17.3245 17.7418L16.5815 16.0076Z" fill="black"/>
</svg>
